<mxfile host="app.diagrams.net" agent="Mozilla/5.0 (Windows NT 10.0; Win64; x64) AppleWebKit/537.36 (KHTML, like Gecko) Chrome/138.0.0.0 Safari/537.36" version="28.0.7">
  <diagram name="Page-1" id="wS74rdnaW5-aAfxRUT_N">
    <mxGraphModel dx="1213" dy="657" grid="1" gridSize="10" guides="1" tooltips="1" connect="1" arrows="1" fold="1" page="1" pageScale="1" pageWidth="850" pageHeight="1100" math="0" shadow="0">
      <root>
        <mxCell id="0" />
        <mxCell id="1" parent="0" />
        <mxCell id="jaGxl98I0yxgbSE1pWgU-1" value="" style="shape=actor;whiteSpace=wrap;html=1;" vertex="1" parent="1">
          <mxGeometry x="100" y="285" width="40" height="60" as="geometry" />
        </mxCell>
        <mxCell id="jaGxl98I0yxgbSE1pWgU-4" value="Biometric API&lt;div&gt;(Device Support)&lt;/div&gt;" style="rounded=1;whiteSpace=wrap;html=1;" vertex="1" parent="1">
          <mxGeometry x="280" y="330" width="120" height="60" as="geometry" />
        </mxCell>
        <mxCell id="jaGxl98I0yxgbSE1pWgU-30" style="edgeStyle=orthogonalEdgeStyle;rounded=0;orthogonalLoop=1;jettySize=auto;html=1;entryX=0.5;entryY=0;entryDx=0;entryDy=0;" edge="1" parent="1" source="jaGxl98I0yxgbSE1pWgU-5" target="jaGxl98I0yxgbSE1pWgU-7">
          <mxGeometry relative="1" as="geometry">
            <Array as="points">
              <mxPoint x="390" y="90" />
              <mxPoint x="660" y="90" />
            </Array>
          </mxGeometry>
        </mxCell>
        <mxCell id="jaGxl98I0yxgbSE1pWgU-31" style="edgeStyle=orthogonalEdgeStyle;rounded=0;orthogonalLoop=1;jettySize=auto;html=1;" edge="1" parent="1" source="jaGxl98I0yxgbSE1pWgU-5" target="jaGxl98I0yxgbSE1pWgU-9">
          <mxGeometry relative="1" as="geometry" />
        </mxCell>
        <mxCell id="jaGxl98I0yxgbSE1pWgU-32" style="edgeStyle=orthogonalEdgeStyle;rounded=0;orthogonalLoop=1;jettySize=auto;html=1;" edge="1" parent="1" source="jaGxl98I0yxgbSE1pWgU-5" target="jaGxl98I0yxgbSE1pWgU-20">
          <mxGeometry relative="1" as="geometry">
            <Array as="points">
              <mxPoint x="390" y="300" />
            </Array>
          </mxGeometry>
        </mxCell>
        <mxCell id="jaGxl98I0yxgbSE1pWgU-33" style="edgeStyle=orthogonalEdgeStyle;rounded=0;orthogonalLoop=1;jettySize=auto;html=1;entryX=0;entryY=0.5;entryDx=0;entryDy=0;" edge="1" parent="1" source="jaGxl98I0yxgbSE1pWgU-5" target="jaGxl98I0yxgbSE1pWgU-11">
          <mxGeometry relative="1" as="geometry">
            <Array as="points">
              <mxPoint x="360" y="320" />
              <mxPoint x="501" y="320" />
              <mxPoint x="501" y="415" />
            </Array>
          </mxGeometry>
        </mxCell>
        <mxCell id="jaGxl98I0yxgbSE1pWgU-5" value="Backend&lt;div&gt;Node.JS&lt;/div&gt;" style="rounded=1;whiteSpace=wrap;html=1;" vertex="1" parent="1">
          <mxGeometry x="330" y="190" width="120" height="60" as="geometry" />
        </mxCell>
        <mxCell id="jaGxl98I0yxgbSE1pWgU-7" value="Database&lt;div&gt;(PostgreSQL)&lt;/div&gt;" style="shape=datastore;whiteSpace=wrap;html=1;" vertex="1" parent="1">
          <mxGeometry x="620" y="110" width="80" height="80" as="geometry" />
        </mxCell>
        <mxCell id="jaGxl98I0yxgbSE1pWgU-8" value="File Storage&lt;div&gt;(S3)&lt;/div&gt;" style="shape=datastore;whiteSpace=wrap;html=1;" vertex="1" parent="1">
          <mxGeometry x="515" y="110" width="70" height="80" as="geometry" />
        </mxCell>
        <mxCell id="jaGxl98I0yxgbSE1pWgU-9" value="Authentication&lt;div&gt;JWT/OAauth 2.0&lt;br&gt;&lt;div&gt;&lt;br&gt;&lt;/div&gt;&lt;/div&gt;" style="sketch=0;verticalLabelPosition=bottom;sketch=0;aspect=fixed;html=1;verticalAlign=top;strokeColor=none;fillColor=#000000;align=center;outlineConnect=0;pointerEvents=1;shape=mxgraph.citrix2.authentication_saml;" vertex="1" parent="1">
          <mxGeometry x="585" y="195" width="50" height="50" as="geometry" />
        </mxCell>
        <mxCell id="jaGxl98I0yxgbSE1pWgU-11" value="Credit scoring engine&lt;div&gt;&amp;nbsp;FICOÂ® Score&lt;/div&gt;" style="rounded=1;whiteSpace=wrap;html=1;" vertex="1" parent="1">
          <mxGeometry x="552.5" y="390" width="120" height="50" as="geometry" />
        </mxCell>
        <mxCell id="jaGxl98I0yxgbSE1pWgU-20" value="Notification Service&lt;div&gt;SMS/Email&lt;/div&gt;" style="html=1;verticalLabelPosition=bottom;align=center;labelBackgroundColor=#ffffff;verticalAlign=top;strokeWidth=2;strokeColor=#0080F0;shadow=0;dashed=0;shape=mxgraph.ios7.icons.bell;" vertex="1" parent="1">
          <mxGeometry x="585" y="290" width="55" height="50" as="geometry" />
        </mxCell>
        <mxCell id="jaGxl98I0yxgbSE1pWgU-25" style="edgeStyle=orthogonalEdgeStyle;rounded=0;orthogonalLoop=1;jettySize=auto;html=1;entryX=0.017;entryY=0.589;entryDx=0;entryDy=0;entryPerimeter=0;" edge="1" parent="1" source="jaGxl98I0yxgbSE1pWgU-1" target="jaGxl98I0yxgbSE1pWgU-2">
          <mxGeometry relative="1" as="geometry" />
        </mxCell>
        <mxCell id="jaGxl98I0yxgbSE1pWgU-26" style="edgeStyle=orthogonalEdgeStyle;rounded=0;orthogonalLoop=1;jettySize=auto;html=1;entryX=0;entryY=0.5;entryDx=0;entryDy=0;" edge="1" parent="1" source="jaGxl98I0yxgbSE1pWgU-3" target="jaGxl98I0yxgbSE1pWgU-5">
          <mxGeometry relative="1" as="geometry" />
        </mxCell>
        <mxCell id="jaGxl98I0yxgbSE1pWgU-27" style="edgeStyle=orthogonalEdgeStyle;rounded=0;orthogonalLoop=1;jettySize=auto;html=1;entryX=0;entryY=0.75;entryDx=0;entryDy=0;exitX=0.528;exitY=0.989;exitDx=0;exitDy=0;exitPerimeter=0;" edge="1" parent="1" source="jaGxl98I0yxgbSE1pWgU-2" target="jaGxl98I0yxgbSE1pWgU-4">
          <mxGeometry relative="1" as="geometry">
            <mxPoint x="220" y="310" as="sourcePoint" />
            <Array as="points">
              <mxPoint x="220" y="264" />
              <mxPoint x="220" y="375" />
            </Array>
          </mxGeometry>
        </mxCell>
        <mxCell id="jaGxl98I0yxgbSE1pWgU-23" value="" style="group" vertex="1" connectable="0" parent="1">
          <mxGeometry x="190" y="175" width="60" height="130" as="geometry" />
        </mxCell>
        <mxCell id="jaGxl98I0yxgbSE1pWgU-10" value="" style="group" vertex="1" connectable="0" parent="jaGxl98I0yxgbSE1pWgU-23">
          <mxGeometry width="60" height="90" as="geometry" />
        </mxCell>
        <mxCell id="jaGxl98I0yxgbSE1pWgU-2" value="" style="html=1;verticalLabelPosition=bottom;align=center;labelBackgroundColor=#ffffff;verticalAlign=top;strokeWidth=2;strokeColor=#0080F0;shadow=0;dashed=0;shape=mxgraph.ios7.icons.smartphone;" vertex="1" parent="jaGxl98I0yxgbSE1pWgU-10">
          <mxGeometry width="60" height="90" as="geometry" />
        </mxCell>
        <mxCell id="jaGxl98I0yxgbSE1pWgU-3" value="Bijak&lt;div&gt;Pinjam&lt;/div&gt;" style="text;html=1;align=center;verticalAlign=middle;whiteSpace=wrap;rounded=0;" vertex="1" parent="jaGxl98I0yxgbSE1pWgU-10">
          <mxGeometry y="30" width="60" height="30" as="geometry" />
        </mxCell>
        <mxCell id="jaGxl98I0yxgbSE1pWgU-22" value="Flutter" style="text;html=1;align=center;verticalAlign=middle;whiteSpace=wrap;rounded=0;" vertex="1" parent="jaGxl98I0yxgbSE1pWgU-23">
          <mxGeometry y="100" width="60" height="30" as="geometry" />
        </mxCell>
        <mxCell id="jaGxl98I0yxgbSE1pWgU-29" style="edgeStyle=orthogonalEdgeStyle;rounded=0;orthogonalLoop=1;jettySize=auto;html=1;entryX=0.15;entryY=0.05;entryDx=0;entryDy=0;entryPerimeter=0;" edge="1" parent="1" source="jaGxl98I0yxgbSE1pWgU-5" target="jaGxl98I0yxgbSE1pWgU-8">
          <mxGeometry relative="1" as="geometry">
            <Array as="points">
              <mxPoint x="400" y="114" />
            </Array>
          </mxGeometry>
        </mxCell>
      </root>
    </mxGraphModel>
  </diagram>
</mxfile>
